<svg xmlns="http://www.w3.org/2000/svg" xmlns:xlink="http://www.w3.org/1999/xlink" width="472" height="487" viewBox="0 0 472 487">
    <defs>
        <path id="a" d="M60 68h352.464v352.464H60z"/>
    </defs>
    <g fill="none" fill-rule="evenodd">
        <path fill="#FFF" d="M260.426 264.525c6.187 5.126 9.936 5.543 17.191 1.433-.822 3.083-1.23 5.741-2.226 8.155-3.399 8.233-7.04 16.364-10.497 24.573-.59 1.4-1.345 1.897-2.84 1.893-16.843-.042-33.687.01-50.53-.106-1.077-.007-2.554-.905-3.155-1.833-4.99-7.714-9.824-15.529-14.689-23.323-2.519-4.036-3.752-8.463-3.779-13.205-.04-7.1-.057-14.204.001-21.304.054-6.595 3.956-10.556 10.56-10.595 12.018-.07 24.036-.064 36.054 0 6.09.031 10.122 3.892 10.114 9.441-.007 5.4-4.26 9.26-10.275 9.29-4.189.022-8.378-.057-12.564.056-.858.024-1.698.7-2.546 1.076.432.895.63 2.09 1.334 2.636 7.452 5.8 12.843 13.042 16.023 21.966.298.836 1.711 1.995 2.346 1.851 1.633-.369 1.397-1.793.828-3.092-.546-1.247-1.219-2.482-1.495-3.794-.254-1.205-.054-2.506-.054-3.764 7.76 6.456 13.808 6.021 20.2-1.354zM205.934 336.805h60.547V304.28h-60.547z"/>
        <path fill="#FFF" d="M277.426 242.703c0 4.734.058 9.471-.015 14.204-.077 5.008-3.262 8.42-7.733 8.44-4.647.02-7.933-3.388-7.964-8.498a1944.7 1944.7 0 0 1 .015-28.68c.035-4.005 2.184-6.834 5.584-7.859 3.101-.935 6.697.06 8.464 2.855.96 1.52 1.497 3.523 1.579 5.337.214 4.725.072 9.466.07 14.201M258.173 241.234c0 5.736.044 11.474-.014 17.21-.05 4.91-3.346 8.389-7.826 8.402-4.29.014-7.629-3.416-7.897-8.134-.047-.818.048-1.646-.032-2.457-.293-2.93.32-4.985 3.065-7.027 6.447-4.796 6.245-14.92-.218-19.608-2.22-1.611-3.087-3.143-2.869-5.741.232-2.786 1.053-5.198 3.416-6.811 2.512-1.714 5.23-2.04 8.001-.616 2.727 1.402 4.297 3.657 4.33 6.754.061 6.008.017 12.019.017 18.028h.026zM122.684 207.49c10.27 8.134 20.502 16.314 30.761 24.461 1.814 1.44 2.594 3.09 1.174 5.166-1.187 1.734-3.168 1.806-5.259.15-10.41-8.249-20.787-16.54-31.188-24.802-1.445-1.148-2.204-2.633-1.37-4.28.491-.973 1.74-1.56 2.755-2.412 1.28.691 2.31 1.07 3.127 1.717zM380.65 265.911c2.51-.126 3.846.893 4.087 2.861.244 1.995-.956 3.251-2.869 3.702a2489.26 2489.26 0 0 1-18.033 4.167c-6.989 1.591-13.999 3.09-20.968 4.766-2.389.574-4.073-.09-4.74-2.327-.696-2.325.81-3.566 2.918-4.059 12.986-3.03 25.98-6.03 38.973-9.036.351-.08.721-.084.632-.074M316.629 235.238c.848-1.204 1.327-2.336 2.17-3.015a5930.178 5930.178 0 0 1 31.354-25.014c1.695-1.344 3.617-1.615 5.092.191 1.484 1.816.829 3.647-.866 5.004-10.441 8.35-20.882 16.702-31.43 24.917-.942.735-2.724.875-3.957.591-.864-.198-1.456-1.585-2.363-2.674M90.369 265.631c5.585 1.288 10.354 2.405 15.132 3.488 8.318 1.887 16.64 3.751 24.96 5.631.532.12 1.06.263 1.574.441 1.904.66 2.91 1.982 2.313 3.97-.565 1.876-2.025 2.836-4.014 2.387-13.277-3-26.544-6.037-39.81-9.09-1.926-.445-3.25-1.802-2.705-3.718.362-1.275 1.802-2.244 2.55-3.109M168.056 167.735c.687-.847 1.29-2.29 2.226-2.557 1.092-.31 2.588.188 3.695.754.681.348 1.018 1.452 1.41 2.264a18457.615 18457.615 0 0 1 16.436 34.141c.351.732.96 1.594.815 2.26-.264 1.213-.718 2.834-1.62 3.336-.892.496-2.567.09-3.65-.435-.753-.365-1.166-1.559-1.596-2.447a13204.834 13204.834 0 0 1-16.457-34.129c-.428-.889-.73-1.838-1.259-3.187M300.054 164.79c3.586.106 4.784 2.455 3.51 5.265-1.614 3.557-3.362 7.054-5.057 10.574-3.942 8.187-7.879 16.377-11.848 24.55-.428.884-.88 2.073-1.636 2.405-1.1.483-2.787.813-3.665.283-.875-.528-1.217-2.164-1.48-3.383-.127-.59.423-1.354.738-2.006 5.555-11.545 11.082-23.105 16.74-34.601.672-1.368 2.064-2.381 2.698-3.087M239.553 174.12c0 6.374.011 12.75-.005 19.124-.008 3.093-1.189 4.625-3.427 4.541-2.12-.08-3.162-1.527-3.165-4.529a20068.4 20068.4 0 0 1 .002-38.796c.003-2.994 1.084-4.387 3.287-4.39 2.206-.005 3.291 1.39 3.301 4.378.021 6.557.007 13.114.007 19.671M238.828 226.56h-15.484c-.452-4.083-.34-7.808 3.275-10.384 2.704-1.927 5.649-2.01 8.468-.356 4.133 2.427 4.172 6.44 3.74 10.74M204.202 226.442c-.543-6.126 2.483-10.16 7.523-10.224 5.2-.067 8.363 3.897 7.955 10.224h-15.478zM228.323 252.493h10.77l-.621 11.563-.785-.04-9.364-11.523"/>
        <mask id="b" fill="#fff">
            <use xlink:href="#a"/>
        </mask>
        <path fill="#00B1FF" d="M412.464 244.232c0 97.33-78.9 176.232-176.232 176.232C138.902 420.464 60 341.562 60 244.232S138.902 68 236.232 68c97.331 0 176.232 78.902 176.232 176.232" mask="url(#b)"/>
        <path fill="#FFF" d="M285.862 190.652h-1.93c-8.314 0-16.63.007-24.946-.004-3.295-.004-5.011-1.692-5.018-4.947-.013-7.054-.013-14.108 0-21.16.007-3.283 1.573-4.864 4.847-4.87 8.316-.017 16.63-.006 24.946-.006h2.169c0-.914-.03-1.746.006-2.575.109-2.488 1.849-4.288 4.196-4.369 2.376-.08 4.275 1.527 4.613 3.96.094.677.069 1.372.069 2.06.003 23.627.007 47.255-.012 70.883-.001 1.127.08 2.081 1.074 2.867.604.48.977 1.261 1.42 1.93 8.716 13.134 17.438 26.265 26.119 39.424a15.742 15.742 0 0 1 1.779 3.693c5.05 15.29 10.063 30.592 15.064 45.9 1.992 6.095-1.38 10.732-7.783 10.733-54.481.002-108.963.002-163.444 0-4.562 0-7.625-2.204-8.141-6.224-.191-1.495.222-3.203.803-4.633 1.206-2.968 2.696-5.823 4.095-8.71 1.18-2.44 3.212-3.77 5.776-4.484 10.654-2.964 21.29-5.995 31.95-8.939 2.083-.576 3.705-1.616 5.039-3.328 3.84-4.928 7.776-9.784 11.664-14.673 1.356-1.703 2.993-2.865 5.139-3.516 9.87-2.99 19.698-6.124 29.56-9.146 2.182-.669 3.84-1.854 5.182-3.712 7.786-10.782 15.627-21.525 23.463-32.27.605-.83 1.353-1.553 1.953-2.384.275-.38.498-.903.499-1.362.019-13.189.006-26.379-.005-39.569 0-.109-.053-.217-.146-.569" mask="url(#b)"/>
        <path fill="#FFF" d="M213.1 277.336c-.987-4.128-1.897-7.903-2.793-11.68a338.31 338.31 0 0 1-1.462-6.362c-.232-1.07-.738-1.686-1.915-1.836-2.384-.306-4.767-.666-7.12-1.153-1.307-.272-1.753.235-1.993 1.387-2.07 9.922-4.16 19.838-6.247 29.756-.484 2.297-.92 4.607-1.497 6.88-.145.568-.66 1.325-1.16 1.473-5.49 1.62-11.007 3.14-16.523 4.673-.361.1-.757.081-1.413.144.698-3.29 1.34-6.4 2.02-9.505 2.4-10.96 4.816-21.919 7.216-32.88.319-1.454 1.18-3.166.704-4.303-.422-1.009-2.365-1.367-3.62-2.044-6.323-3.409-8.906-10.003-7.07-17.845 1.294-5.52 2.513-11.058 3.752-16.59.084-.377.057-.778.109-1.62-2.16 1.132-3.708 2.45-4.7 4.33-2.67 5.066-5.245 10.181-7.918 15.246-1.486 2.816-3.666 4.427-7.077 4.584-4.05.188-7.588-3.653-7.318-7.799.05-.793.098-1.652.425-2.35 2.718-5.807 5.443-11.61 8.282-17.359 2.58-5.225 7.184-8.387 12.033-11.189 4.063-2.347 8.299-4.4 12.342-6.782 3.777-2.224 7.802-2.382 11.968-2.043 2.229.181 4.469.496 6.692.418 3.734-.133 6.569 1.55 8.834 4.197 3.05 3.565 5.88 7.32 8.792 11.003.638.81 1.368 1.591 1.808 2.504 1.308 2.711 3.579 3.562 6.379 3.826 4.048.381 8.08.937 12.112 1.475 3.78.505 6.21 2.792 6.92 6.403.567 2.888-.935 6.348-3.665 7.704-1.331.661-2.988 1.186-4.418 1.033-5.807-.619-11.597-1.435-17.365-2.355-4.34-.693-7.656-3.185-10.337-6.582-.42-.53-.848-1.053-1.621-2.009-.448 1.722-.837 3.03-1.127 4.36-.9 4.14-1.754 8.29-2.645 12.433-.43 1.995-.338 2.096 1.604 2.45 3.884.708 7.844 1.178 11.612 2.292 5.07 1.5 8.073 5.295 9.354 10.345 1.323 5.215 2.43 10.483 3.69 15.715.244 1.015-.212 1.356-1.018 1.596-1.427.426-2.84.901-4.276 1.283-3.771 1-6.938 2.93-9.415 5.964-.17.207-.407.358-.934.812M196.665 189.01c-9.187-.076-16.605-7.569-16.564-16.73.041-9.31 7.657-16.79 16.988-16.686 9.102.103 16.581 7.748 16.488 16.855-.094 9.261-7.626 16.637-16.912 16.56" mask="url(#b)"/>
    </g>
</svg>
