<svg xmlns="http://www.w3.org/2000/svg" xmlns:xlink="http://www.w3.org/1999/xlink" width="472" height="487" viewBox="0 0 472 487">
    <defs>
        <path id="a" d="M0 .536h352.464V353H0z"/>
    </defs>
    <g fill="none" fill-rule="evenodd">
        <g transform="translate(60 67.464)">
            <mask id="b" fill="#fff">
                <use xlink:href="#a"/>
            </mask>
            <path fill="#00B1FF" d="M352.464 176.768c0 97.33-78.902 176.232-176.232 176.232S0 274.098 0 176.768 78.902.536 176.232.536s176.232 78.902 176.232 176.232" mask="url(#b)"/>
        </g>
        <path fill="#FFF" d="M226.683 304.776c1.353-.462 2.931-.778 4.276-1.52 1.633-.898 3.307-1.943 4.526-3.313 1.437-1.613.663-4.05-1.147-4.715-3.178-1.171-7.75-.625-9.146 1.297-2.144 2.956-.3 5.49 1.113 8.025.034.063.138.086.378.226m-2.953-33.16c.786.099 1.108.18 1.43.176 8.981-.102 14.502-7.672 12.572-17.23-.74-3.665-.738-3.704-4.425-3.872-1.656-.074-3.337-.102-4.976.1-3.427.426-5.45 2.303-5.437 5.735.021 5.04.534 10.077.836 15.09m34.983-63.768l.38.704c2.95.288 5.896.697 8.853.822 2.112.09 3.24.785 3.768 2.987.44 1.827 1.582 3.484 2.413 5.217l.797.069c1.542-5.688 4.57-10.064 10.541-11.903-3.086-4.25-.702-8.295-.372-12.884-3.046 1.909-5.672 3.612-8.356 5.22-2.765 1.656-4.049 1.396-6.373-.874-1.5-1.464-3.126-2.798-4.696-4.191l-.797.173c-.744 5.447-1.024 11.09-6.158 14.66m12.194 62.02c-5.987.545-11.334 1.66-13.49 7.537-1.69 4.6-1.812 9.644 1.874 13.39 3.842 3.904 8.968 2.893 13.892 2.407-.405-4.136-.779-7.944-1.15-11.751-.37-3.787-.737-7.575-1.126-11.583m43.443 6.192c.293 2.816.682 4.947.692 7.082.011 2.18 1.051 3.17 2.958 3.949 12.234 4.995 24.403 10.152 36.653 15.106 3.124 1.264 6.465 1.989 9.72 2.967 1.09-4.752-.128-7.508-4.665-9.048-11.872-4.031-22.869-9.878-33.95-15.607-3.476-1.796-7.322-2.881-11.408-4.45m-1.49-29.642c12.348 10.798 27.621 15.843 42.774 22.094-.157-1.818-.209-2.97-.362-4.107-.805-5.995-3.448-10.71-9.265-13.197-3.364-1.44-6.747-2.838-10.069-4.368-7.508-3.458-15.133-3.345-23.078-.422m-136.806 28.053c-5.534-.246-11.094-.532-16.657-.73-8.746-.31-17.295-1.294-24.667-6.672-.332-.242-.73-.398-1.108-.573-2.247-1.042-3.504-.573-4.062 1.858-.48 2.092-.684 4.266-.814 6.416-.244 4.02-.267 4.44 3.752 5.23 11.008 2.164 22.046 4.289 33.16 5.766 8.563 1.138 10.946-1.567 10.623-10.231-.006-.162-.066-.322-.227-1.064m56.352-31.97c29.052-.903 58.111-1.87 86.947-5.78 8.36-1.132 16.59-3.412 24.766-5.593 3.744-1 7.301-2.927 9.321-6.644 1.93-3.553.407-6.176-3.584-6.178-.91-.001-1.85.042-2.729.257-5.65 1.386-11.245 3.027-16.935 4.209-13.275 2.757-26.598 5.282-39.893 7.942-14.29 2.859-28.59 5.567-43.248 5.69-13.077.112-26.156.292-39.23.598-18.609.435-37.168-.545-55.575-3.025-8.338-1.124-16.423-4.153-24.612-6.36-3.39-.913-6.786-1.866-10.297-.907-.782.214-1.885 1.06-1.965 1.72-.322 2.692 1.587 5.194 4.316 5.887 2.174.552 4.39.95 6.596 1.365 5.712 1.075 11.39 2.485 17.152 3.1 11.174 1.196 22.394 1.962 33.6 2.86 8.38.672 16.762 1.697 25.153 1.793 10.067.116 20.144-.586 30.217-.933m46.7-17.01c5.87-1.026 11.302-1.746 16.624-2.948 16.388-3.703 32.734-7.594 49.1-11.395 1.456-.34 3.01-.371 4.394-.885 2.626-.974 4.246.026 5.475 2.256 1.881 3.416 4.072 6.695 5.61 10.257 1.683 3.906.725 6.164-2.71 8.515-4.806 3.289-4.975 3.338-3.384 8.83 4.31 14.869 8.92 29.652 13.126 44.55 2.534 8.975 4.433 18.117 4.128 27.55-.02.666-.05 1.33-.108 1.994-.012.145-.162.279-.54.884-2.665-.973-5.494-1.861-8.203-3.026-5.58-2.4-11.006-5.193-16.675-7.351-3.912-1.488-8.128-2.177-12.917-3.407-1.698 6.155-3.349 11.782-4.787 17.462-1.207 4.766-2.23 5.822-7.758 6.536-1.525-4.861-3.334-9.767-4.596-14.81-4.956-19.795-8.868-39.796-11.244-60.08-.096-.818-.265-1.626-.45-2.751L277 249.51c0 6.91-.517 13.666.108 20.313 1.293 13.753 3.25 27.442 4.818 41.17.703 6.152.528 12.298-.956 18.363-.67 2.737-2.306 3.276-4.664 1.382-7.015-5.635-14.007-11.296-21.01-16.944-1.419-1.143-2.848-2.271-4.663-3.717-3.163 3.524-6.363 6.89-9.333 10.45-3.252 3.897-6.199 8.048-9.458 11.937-1.838 2.194-4.225 3.73-7.855 3.99-1.059-5.496-2.354-10.991-3.145-16.555-2.102-14.79-2.728-29.675-2.658-44.61.037-7.886-.42-15.775-.664-23.942h-11.407c-4.582 0-9.168.09-13.747-.047-1.725-.051-2.439.585-3.085 2.103-4.31 10.126-5.275 20.927-6.516 31.668-1.537 13.303-1.982 26.764-5.553 39.768-.803 2.928-2.249 5.679-3.7 9.254-3-2.186-5.914-3.73-8.06-6-4.344-4.59-8.17-9.666-12.406-14.363-2.37-2.63-5.135-4.901-8.13-7.718-3.799 4.27-7.286 8.139-10.713 12.06-2.52 2.884-4.9 5.89-7.466 8.73-1.1 1.22-2.39 2.373-3.807 3.18-2.512 1.43-4.964.002-5.18-2.747-.73-9.312 1.085-18.413 2.286-27.56 2.005-15.266 4.137-30.516 6.12-45.786.308-2.381-.018-4.837.182-7.24.13-1.555-.643-1.987-1.863-2.35-4.373-1.3-8.746-2.606-13.079-4.034-.674-.222-1.643-1.111-1.62-1.656.285-6.724.73-13.441 1.171-20.773 3.326.435 6.49.526 9.473 1.308 5.712 1.495 11.327 3.36 16.97 5.112 10.344 3.21 20.994 4.428 31.755 4.896 27.815 1.21 55.635 1.554 83.452.1 5.555-.29 11.094-.892 16.97-1.377-1.199-3.612-2.209-6.932-3.455-10.162-.229-.593-1.395-1.107-2.165-1.164-4.317-.323-8.653-.407-12.966-.765-1.513-.125-2.982-.797-5.099-1.397 1.358-2.038 2.293-3.753 3.528-5.216 1.5-1.776 3.275-3.318 4.89-5.002 2.63-2.745 4.26-5.901 4.086-9.843-.11-2.494-.198-5.004-.056-7.493.178-3.11 1.635-3.718 4.286-2.096 3.683 2.253 7.357 4.537 11.177 6.536.922.48 2.588.245 3.584-.281 1.59-.84 2.92-2.18 4.328-3.345 1.666-1.38 3.205-2.935 4.97-4.171 3.215-2.255 5.047-1.383 4.975 2.596-.077 4.229-.622 8.455-1.089 12.669-.449 4.057-.532 4.082 3.361 5.504a57.419 57.419 0 0 0 5.245 1.613c2.523.656 3.567 2.289 2.51 4.695-.642 1.459-1.607 2.788-3.71 2.77-3.327-.025-6.656.273-9.984.436-4.497.222-6.068 1.366-7.412 5.648-.569 1.815-.902 3.703-1.467 6.082"/>
        <path fill="#FFF" d="M143.306 165.704c-.554 2.506-1.001 4.784-1.566 7.033-1.035 4.122-3.754 6.517-7.986 7.127-1.153.166-2.355.151-3.455.482-1.967.592-3.873 1.383-5.805 2.091l.05.906c1.783 1.183 3.525 2.433 5.358 3.53 1.923 1.15 3.923 2.173 5.908 3.215 2.4 1.26 3.127 3.03 2.298 5.708-.738 2.385-1.033 4.907-1.524 7.368l.81.552c2.09-1.816 4.25-3.56 6.259-5.465 3.764-3.569 6.769-3.683 10.72-.352 1.593 1.342 3.306 2.54 4.965 3.804l.53-.499c-1.145-3.087-2.163-6.23-3.48-9.244-.87-1.99-.628-3.482 1.029-4.792 2.097-1.658 4.204-3.302 6.396-5.022-.607-.38-1.135-.783-1.722-1.065-.822-.395-1.691-1.002-2.534-.992-4.324.051-5.926-2.668-7.376-6.21-1.564-3.824-4.175-6.994-8.875-8.175m32.143 8.333c.886 5.167.019 6.922-3.883 9.648-9.913 6.926-8.366 3.484-5.373 14.754.957 3.605 1.72 7.265 2.435 10.927.402 2.06-.551 2.968-2.753 3.05-3.082.112-5.712-.826-8.142-2.58-2.16-1.56-4.341-3.089-6.472-4.685-1.64-1.226-3.213-1.147-4.81.021-2.484 1.82-4.907 3.732-7.473 5.427-1.644 1.086-3.426 2.068-5.281 2.706-2.13.732-3.652-.14-4.353-2.446-.97-3.193-.424-6.245.487-9.319 1.699-5.726 1.65-5.678-3.283-8.783-3.871-2.435-7.777-4.847-11.43-7.589-3.381-2.538-3.007-5.539.93-7.128 3.76-1.517 7.752-2.462 11.65-3.633 1.352-.406 2.715-.802 4.097-1.085 3.118-.64 4.64-2.245 5.169-5.65.496-3.19 2.217-6.213 3.59-9.22.267-.582 1.426-1.075 2.168-1.068 4.328.044 7.632 2.261 10.157 5.537 1.973 2.56 3.478 5.474 5.392 8.083.62.847 1.83 1.634 2.85 1.754 4.778.56 9.583.878 14.328 1.28M327.786 180.844c3.25-.003 6.11-1.965 6.195-4.25.074-1.995-1.665-3.549-3.98-3.554-1.988-.005-5.627 2.491-5.66 3.882-.028 1.293 2.282 3.922 3.445 3.921m-9.737-3.75c.2-5.854 3.034-8.883 9.588-10.138 5.823-1.115 9.775 1.074 11.55 6.793.473 1.52.507 3.696-.257 4.971-1.687 2.814-3.792 5.48-6.181 7.72-.961.9-3.122.74-4.726.696-5.318-.145-8.382-2.153-9.45-6.11-.342-1.266-.36-2.619-.524-3.932M203.422 197.14c-3.76 3.017-4.013 3.783-2.762 7.764 3.415.304 4.62-.555 5.765-3.682 1.127-3.08-2.069-2.54-3.003-4.082m.193-4.875c3.902.06 6.656 1.792 9.018 4.268.358.376.59.99.645 1.519.482 4.608-3.063 11.13-7.23 13.4-3.644 1.985-7.69 1.264-10.21-2.124-2.563-3.448-3.06-7.38-1.287-11.307 1.778-3.94 5.1-5.733 9.064-5.756"/>
    </g>
</svg>
