<svg xmlns="http://www.w3.org/2000/svg" xmlns:xlink="http://www.w3.org/1999/xlink" width="472" height="487" viewBox="0 0 472 487">
    <defs>
        <path id="a" d="M0 .536h352.464V353H0z"/>
        <path id="c" d="M60 420.464h352.464V68H60z"/>
    </defs>
    <g fill="none" fill-rule="evenodd">
        <g transform="translate(60 67.464)">
            <mask id="b" fill="#fff">
                <use xlink:href="#a"/>
            </mask>
            <path fill="#00B1FF" d="M176.232 353C78.902 353 0 274.098 0 176.768S78.903.536 176.232.536c97.33 0 176.232 78.902 176.232 176.232S273.563 353 176.232 353z" mask="url(#b)"/>
        </g>
        <path fill="#FFF" d="M260.426 264.525c6.187 5.126 9.936 5.543 17.191 1.433-.822 3.083-1.23 5.741-2.226 8.155-3.399 8.233-7.04 16.364-10.497 24.573-.59 1.4-1.345 1.897-2.84 1.893-16.843-.042-33.687.01-50.53-.106-1.077-.007-2.554-.905-3.155-1.833-4.99-7.714-9.824-15.529-14.689-23.323-2.519-4.036-3.752-8.463-3.779-13.205-.04-7.1-.057-14.204.001-21.304.054-6.595 3.956-10.556 10.56-10.595 12.018-.07 24.036-.064 36.054 0 6.09.031 10.122 3.892 10.114 9.441-.007 5.4-4.26 9.26-10.275 9.29-4.189.022-8.378-.057-12.564.056-.858.024-1.698.7-2.546 1.076.432.895.63 2.09 1.334 2.636 7.452 5.8 12.843 13.042 16.023 21.966.298.836 1.711 1.995 2.346 1.851 1.633-.369 1.397-1.793.828-3.092-.546-1.247-1.219-2.482-1.495-3.794-.254-1.205-.054-2.506-.054-3.764 7.76 6.456 13.808 6.021 20.2-1.354z"/>
        <mask id="d" fill="#fff">
            <use xlink:href="#c"/>
        </mask>
        <path fill="#FFF" d="M205.934 336.805h60.547V304.28h-60.547zM277.426 242.703c0 4.734.058 9.471-.015 14.204-.077 5.008-3.262 8.42-7.733 8.44-4.647.02-7.933-3.388-7.964-8.498a1944.7 1944.7 0 0 1 .015-28.68c.035-4.005 2.184-6.834 5.584-7.859 3.101-.935 6.697.06 8.464 2.855.96 1.52 1.497 3.523 1.579 5.337.214 4.725.072 9.466.07 14.201M258.173 241.234c0 5.736.044 11.474-.014 17.21-.05 4.91-3.346 8.389-7.826 8.402-4.29.014-7.629-3.416-7.897-8.134-.047-.818.048-1.646-.032-2.457-.293-2.93.32-4.985 3.065-7.027 6.447-4.796 6.245-14.92-.218-19.608-2.22-1.611-3.087-3.143-2.869-5.741.232-2.786 1.053-5.198 3.416-6.811 2.512-1.714 5.23-2.04 8.001-.616 2.727 1.402 4.297 3.657 4.33 6.754.061 6.008.017 12.019.017 18.028h.026zM122.684 207.49c10.27 8.134 20.502 16.314 30.761 24.461 1.814 1.44 2.594 3.09 1.174 5.166-1.187 1.734-3.168 1.806-5.259.15-10.41-8.249-20.787-16.54-31.188-24.802-1.445-1.148-2.204-2.633-1.37-4.28.491-.973 1.74-1.56 2.755-2.412 1.28.691 2.31 1.07 3.127 1.717zM380.65 265.911c2.51-.126 3.846.893 4.087 2.861.244 1.995-.956 3.251-2.869 3.702a2489.26 2489.26 0 0 1-18.033 4.167c-6.989 1.591-13.999 3.09-20.968 4.766-2.389.574-4.073-.09-4.74-2.327-.696-2.325.81-3.566 2.918-4.059 12.986-3.03 25.98-6.03 38.973-9.036.351-.08.721-.084.632-.074M316.629 235.238c.848-1.204 1.327-2.336 2.17-3.015a5930.178 5930.178 0 0 1 31.354-25.014c1.695-1.344 3.617-1.615 5.092.191 1.484 1.816.829 3.647-.866 5.004-10.441 8.35-20.882 16.702-31.43 24.917-.942.735-2.724.875-3.957.591-.864-.198-1.456-1.585-2.363-2.674M90.369 265.631c5.585 1.288 10.354 2.405 15.132 3.488 8.318 1.887 16.64 3.751 24.96 5.631.532.12 1.06.263 1.574.441 1.904.66 2.91 1.982 2.313 3.97-.565 1.876-2.025 2.836-4.014 2.387-13.277-3-26.544-6.037-39.81-9.09-1.926-.445-3.25-1.802-2.705-3.718.362-1.275 1.802-2.244 2.55-3.109M168.056 167.735c.687-.847 1.29-2.29 2.226-2.557 1.092-.31 2.588.188 3.695.754.681.348 1.018 1.452 1.41 2.264a18457.615 18457.615 0 0 1 16.436 34.141c.351.732.96 1.594.815 2.26-.264 1.213-.718 2.834-1.62 3.336-.892.496-2.567.09-3.65-.435-.753-.365-1.166-1.559-1.596-2.447a13204.834 13204.834 0 0 1-16.457-34.129c-.428-.889-.73-1.838-1.259-3.187M300.054 164.79c3.586.106 4.784 2.455 3.51 5.265-1.614 3.557-3.362 7.054-5.057 10.574-3.942 8.187-7.879 16.377-11.848 24.55-.428.884-.88 2.073-1.636 2.405-1.1.483-2.787.813-3.665.283-.875-.528-1.217-2.164-1.48-3.383-.127-.59.423-1.354.738-2.006 5.555-11.545 11.082-23.105 16.74-34.601.672-1.368 2.064-2.381 2.698-3.087M239.553 174.12c0 6.374.011 12.75-.005 19.124-.008 3.093-1.189 4.625-3.427 4.541-2.12-.08-3.162-1.527-3.165-4.529a20068.4 20068.4 0 0 1 .002-38.796c.003-2.994 1.084-4.387 3.287-4.39 2.206-.005 3.291 1.39 3.301 4.378.021 6.557.007 13.114.007 19.671M238.828 226.56h-15.484c-.452-4.083-.34-7.808 3.275-10.384 2.704-1.927 5.649-2.01 8.468-.356 4.133 2.427 4.172 6.44 3.74 10.74M204.202 226.442c-.543-6.126 2.483-10.16 7.523-10.224 5.2-.067 8.363 3.897 7.955 10.224h-15.478zM228.323 252.493h10.77l-.621 11.563-.785-.04-9.364-11.523" mask="url(#d)"/>
    </g>
</svg>
